<?xml version="1.0" encoding="UTF-8" standalone="no"?><!DOCTYPE svg PUBLIC "-//W3C//DTD SVG 1.1//EN" "http://www.w3.org/Graphics/SVG/1.1/DTD/svg11.dtd"><svg width="100%" height="100%" viewBox="0 0 215 215" version="1.1" xmlns="http://www.w3.org/2000/svg" xmlns:xlink="http://www.w3.org/1999/xlink" xml:space="preserve" xmlns:serif="http://www.serif.com/" style="fill-rule:evenodd;clip-rule:evenodd;"><clipPath id="_clip1"><rect x="0" y="0" width="214.774" height="214.774"/></clipPath><g clip-path="url(#_clip1)"><path d="M178.978,89.489c0,39.539 -71.591,107.387 -71.591,107.387c0,0 -71.591,-67.848 -71.591,-107.387c0,-14.174 4.119,-27.387 11.226,-38.505c12.717,-19.896 35.001,-33.086 60.365,-33.086c39.539,0 71.591,32.052 71.591,71.591Z" style="fill:none;fill-rule:nonzero;stroke:#232623;stroke-width:13.42px;"/><path d="M107.387,98.438c4.942,0 8.949,-4.006 8.949,-8.949c0,-4.942 -4.006,-8.949 -8.949,-8.949c-4.942,0 -8.949,4.007 -8.949,8.949c0,4.942 4.006,8.949 8.949,8.949Z" style="fill:#232623;fill-rule:nonzero;stroke:#232623;stroke-width:13.42px;stroke-linecap:round;stroke-linejoin:round;"/></g></svg>